<svg width="11" height="10" viewBox="0 0 11 10" fill="none" xmlns="http://www.w3.org/2000/svg">
<path fill-rule="evenodd" clip-rule="evenodd" d="M10.6126 0.140279C10.8046 0.262879 10.9378 0.453498 10.9831 0.670207C11.0284 0.886916 10.9819 1.11197 10.8539 1.29586L5.05295 9.62936C4.9815 9.73185 4.88721 9.8179 4.77686 9.88129C4.66652 9.94468 4.54286 9.98385 4.41481 9.99596C4.28675 10.0081 4.15749 9.99284 4.03632 9.95135C3.91515 9.90986 3.8051 9.84315 3.7141 9.75603L0.233536 6.42263C0.0798345 6.26465 -0.00384181 6.05571 0.000135564 5.83981C0.00411294 5.62392 0.0954336 5.41793 0.254858 5.26525C0.414283 5.11256 0.629364 5.0251 0.85479 5.02129C1.08022 5.01748 1.29838 5.09762 1.46333 5.24483L4.19325 7.85932L9.40597 0.370283C9.53417 0.186587 9.73328 0.0591667 9.95955 0.0160357C10.1858 -0.0270953 10.4207 0.0175941 10.6126 0.140279Z" fill="black"/>
</svg>
