<svg width="25" height="24" viewBox="0 0 25 24" fill="none" xmlns="http://www.w3.org/2000/svg">
<path d="M15.1752 8.69986V4.29994C15.1752 3.86659 15.0898 3.43748 14.924 3.03711C14.7582 2.63674 14.5151 2.27296 14.2087 1.96653C13.9022 1.6601 13.5385 1.41703 13.1381 1.25119C12.7377 1.08536 12.3086 1 11.8753 1L7.47534 10.8998V22.9996H20.2571C20.7877 23.0056 21.3025 22.8197 21.7068 22.476C22.1111 22.1324 22.3775 21.6542 22.4571 21.1296L23.975 11.2298C24.0229 10.9145 24.0016 10.5926 23.9127 10.2863C23.8238 9.98004 23.6694 9.69677 23.4601 9.45611C23.2508 9.21546 22.9918 9.02318 22.7008 8.8926C22.4098 8.76201 22.094 8.69625 21.7751 8.69986H15.1752Z" stroke="black" stroke-width="2" stroke-linejoin="round"/>
<path d="M7.47537 10.7777H4.53842C3.24961 10.7551 2.14841 11.8227 1.97546 13.0999V20.7997C2.05918 21.4167 2.36636 21.9814 2.83876 22.3869C3.31117 22.7924 3.91594 23.0104 4.53842 22.9997H7.47537V10.7777Z" fill="black" stroke="black" stroke-width="2" stroke-linejoin="round"/>
</svg>
